<?xml version="1.0" encoding="UTF-8" standalone="no"?>
<!-- Generator: Adobe Illustrator 19.0.0, SVG Export Plug-In . SVG Version: 6.00 Build 0)  -->

<svg
   xmlns:dc="http://purl.org/dc/elements/1.1/"
   xmlns:cc="http://creativecommons.org/ns#"
   xmlns:rdf="http://www.w3.org/1999/02/22-rdf-syntax-ns#"
   xmlns:svg="http://www.w3.org/2000/svg"
   xmlns="http://www.w3.org/2000/svg"
   xmlns:sodipodi="http://sodipodi.sourceforge.net/DTD/sodipodi-0.dtd"
   xmlns:inkscape="http://www.inkscape.org/namespaces/inkscape"
   version="1.1"
   id="Layer_1"
   x="0px"
   y="0px"
   viewBox="0 0 512 512"
   style="enable-background:new 0 0 512 512;"
   xml:space="preserve"
   inkscape:version="0.91 r13725"
   sodipodi:docname="truck-10.svg"><metadata
     id="metadata4188"><rdf:RDF><cc:Work
         rdf:about=""><dc:format>image/svg+xml</dc:format><dc:type
           rdf:resource="http://purl.org/dc/dcmitype/StillImage" /><dc:title></dc:title></cc:Work></rdf:RDF></metadata><defs
     id="defs4186" /><sodipodi:namedview
     pagecolor="#ffffff"
     bordercolor="#666666"
     borderopacity="1"
     objecttolerance="10"
     gridtolerance="10"
     guidetolerance="10"
     inkscape:pageopacity="0"
     inkscape:pageshadow="2"
     inkscape:window-width="1680"
     inkscape:window-height="1001"
     id="namedview4184"
     showgrid="false"
     inkscape:zoom="1.5605469"
     inkscape:cx="256"
     inkscape:cy="256"
     inkscape:window-x="0"
     inkscape:window-y="1"
     inkscape:window-maximized="1"
     inkscape:current-layer="Layer_1" /><path
     style="fill:#625D6B;"
     d="M344.276,83.862c-4.875,0-8.828,3.953-8.828,8.828c0,4.875,3.953,8.828,8.828,8.828h8.828v273.655  h26.483V92.69c0-4.875-3.953-8.828-8.828-8.828H344.276z"
     id="path4122" /><path
     style="fill:#504B5A;"
     d="M299.646,220.375l-79.892-116.206c-4.94-7.186-13.102-11.479-21.823-11.479H70.621  c-9.751,0-17.655,7.904-17.655,17.655v185.379h256v-45.343C308.966,239.667,305.716,229.204,299.646,220.375z"
     id="path4124" /><path
     style="fill:#625D6B;"
     d="M326.621,278.069L326.621,278.069V384h-88.276v-17.655  C238.345,317.591,277.867,278.069,326.621,278.069z"
     id="path4126" /><rect
     x="8.828"
     y="313.379"
     style="fill:#FFC84B;"
     width="105.931"
     height="70.621"
     id="rect4128" /><g
     id="g4130"><circle
       style="fill:#504B5A;"
       cx="326.621"
       cy="366.345"
       r="61.793"
       id="circle4132" /><circle
       style="fill:#504B5A;"
       cx="44.138"
       cy="384"
       r="44.138"
       id="circle4134" /></g><circle
     style="fill:#FFDC5A;"
     cx="326.621"
     cy="366.345"
     r="35.31"
     id="circle4136" /><circle
     style="fill:#736F7B;"
     cx="326.621"
     cy="366.345"
     r="17.655"
     id="circle4138" /><circle
     style="fill:#FFC84B;"
     cx="44.138"
     cy="384"
     r="17.655"
     id="circle4140" /><path
     style="fill:#FFDC5A;"
     d="M44.138,322.207c34.127,0,61.793,27.666,61.793,61.793c0,0.744-0.018,1.483-0.051,2.219  c-0.161,3.618,2.78,6.609,6.401,6.609h127.951c5.639,0,9.696-5.212,8.556-10.734c-1.049-5.087-1.617-10.348-1.617-15.748  c0-24.186,10.845-45.81,27.894-60.382l-36.278-36.278c-11.588-11.588-27.306-18.099-43.694-18.099H17.655  C7.904,251.586,0,259.49,0,269.241v53.639c0,6.879,7.438,10.958,13.4,7.526C22.451,325.193,32.942,322.207,44.138,322.207z"
     id="path4142" /><path
     style="fill:#FFC84B;"
     d="M240.104,392.828c-4.113,0-7.793-2.883-8.642-7.069c-1.289-6.345-1.944-12.875-1.944-19.414  c0-53.543,43.561-97.103,97.103-97.103c4.875,0,8.828,3.953,8.828,8.828s-3.953,8.828-8.828,8.828  c-43.806,0-79.448,35.642-79.448,79.448c0,5.357,0.534,10.707,1.59,15.896c0.97,4.776-2.116,9.44-6.892,10.41  C241.276,392.771,240.685,392.828,240.104,392.828z"
     id="path4144" /><path
     inkscape:connector-curvature="0"
     id="path4148"
     d="m 150.069,233.931 120.691,0 c 9.23,0 12.503,-6.223 7.274,-13.828 L 205.206,114.172 c -1.646,-2.396 -4.367,-3.827 -7.274,-3.827 l -47.863,0 c -4.875,0 -8.828,3.953 -8.828,8.828 l 0,105.931 c 0,4.874 3.953,8.827 8.828,8.827 z"
     style="fill:#625d6b" /><path
     inkscape:connector-curvature="0"
     id="path4150"
     d="m 114.759,110.345 -26.483,0 c -4.875,0 -8.828,3.953 -8.828,8.828 l 0,105.931 c 0,4.875 3.953,8.828 8.828,8.828 l 26.483,0 c 4.875,0 8.828,-3.953 8.828,-8.828 l 0,-105.932 c -0.001,-4.875 -3.953,-8.827 -8.828,-8.827 z"
     style="fill:#625d6b" /><g
     id="moveable-part-1"><rect
       id="rect4120"
       height="52.966"
       width="35.31"
       style="fill:#504B5A;"
       y="278.069"
       x="370.759" /><path
       style="fill:#625d6b"
       d="m 503.172,410.483 -97.103,0 c -4.875,0 -8.828,-3.953 -8.828,-8.828 l 0,-123.586 c 0,-4.875 3.953,-8.828 8.828,-8.828 4.875,0 8.828,3.953 8.828,8.828 l 0,114.759 88.276,0 c 4.875,0 8.828,3.953 8.828,8.828 0,4.875 -3.954,8.827 -8.829,8.827 z"
       id="path4152"
       inkscape:connector-curvature="0" /></g><g
     id="g4154" /><g
     id="g4156" /><g
     id="g4158" /><g
     id="g4160" /><g
     id="g4162" /><g
     id="g4164" /><g
     id="g4166" /><g
     id="g4168" /><g
     id="g4170" /><g
     id="g4172" /><g
     id="g4174" /><g
     id="g4176" /><g
     id="g4178" /><g
     id="g4180" /><g
     id="g4182" /></svg>