<?xml version="1.0" encoding="UTF-8" standalone="no"?>
<!-- Generator: Adobe Illustrator 19.0.0, SVG Export Plug-In . SVG Version: 6.00 Build 0)  -->

<svg
   xmlns:dc="http://purl.org/dc/elements/1.1/"
   xmlns:cc="http://creativecommons.org/ns#"
   xmlns:rdf="http://www.w3.org/1999/02/22-rdf-syntax-ns#"
   xmlns:svg="http://www.w3.org/2000/svg"
   xmlns="http://www.w3.org/2000/svg"
   xmlns:sodipodi="http://sodipodi.sourceforge.net/DTD/sodipodi-0.dtd"
   xmlns:inkscape="http://www.inkscape.org/namespaces/inkscape"
   version="1.1"
   id="Layer_1"
   x="0px"
   y="0px"
   viewBox="0 0 512.001 512.001"
   style="enable-background:new 0 0 512.001 512.001;"
   xml:space="preserve"
   inkscape:version="0.91 r13725"
   sodipodi:docname="truck-7.svg"><metadata
     id="metadata3775"><rdf:RDF><cc:Work
         rdf:about=""><dc:format>image/svg+xml</dc:format><dc:type
           rdf:resource="http://purl.org/dc/dcmitype/StillImage" /><dc:title /></cc:Work></rdf:RDF></metadata><defs
     id="defs3773" /><sodipodi:namedview
     pagecolor="#ffffff"
     bordercolor="#666666"
     borderopacity="1"
     objecttolerance="10"
     gridtolerance="10"
     guidetolerance="10"
     inkscape:pageopacity="0"
     inkscape:pageshadow="2"
     inkscape:window-width="1680"
     inkscape:window-height="1001"
     id="namedview3771"
     showgrid="false"
     inkscape:zoom="1.5605439"
     inkscape:cx="203.7751"
     inkscape:cy="256.00049"
     inkscape:window-x="0"
     inkscape:window-y="1"
     inkscape:window-maximized="1"
     inkscape:current-layer="Layer_1" /><path
     style="fill:#CAC9CD;"
     d="M426.785,173.56h-62.31c-4.792,0-8.678,3.886-8.678,8.678v34.712h86.78l-7.283-36.414  C434.484,176.48,430.921,173.56,426.785,173.56z"
     id="path3699" /><g
     id="g3701"><path
       style="fill:#504B5A;"
       d="M407.865,186.577v30.373h34.712l-6.942-34.712h-23.431   C409.808,182.238,407.865,184.18,407.865,186.577z"
       id="path3703" /><path
       style="fill:#504B5A;"
       d="M399.187,216.949h-26.034v-30.373c0-2.396,1.943-4.339,4.339-4.339h17.356   c2.396,0,4.339,1.943,4.339,4.339V216.949z"
       id="path3705" /></g><g
     id="g3707"><path
       style="fill:#FFC84B;"
       d="M442.577,303.729H269.018c-4.792,0-8.678-3.886-8.678-8.678v-26.034   c0-4.792,3.886-8.678,8.678-8.678h173.559V303.729z"
       id="path3709" /><path
       style="fill:#FFC84B;"
       d="M199.595,303.729h-43.39v-43.39h43.39c4.792,0,8.678,3.886,8.678,8.678v26.034   C208.273,299.844,204.387,303.729,199.595,303.729z"
       id="path3711" /></g><rect
     x="95.458"
     y="225.627"
     style="fill:#504B5A;"
     width="321.085"
     height="43.39"
     id="rect3713" /><circle
     style="fill:#625D6B;"
     cx="121.492"
     cy="303.729"
     r="60.746"
     id="circle3715" /><circle
     style="fill:#FFDC5A;"
     cx="121.492"
     cy="303.729"
     r="34.712"
     id="circle3717" /><circle
     style="fill:#FFC84B;"
     cx="121.492"
     cy="303.729"
     r="17.356"
     id="circle3719" /><circle
     style="fill:#625D6B;"
     cx="347.119"
     cy="303.729"
     r="60.746"
     id="circle3721" /><circle
     style="fill:#FFDC5A;"
     cx="347.119"
     cy="303.729"
     r="34.712"
     id="circle3723" /><circle
     style="fill:#FFC84B;"
     cx="347.119"
     cy="303.729"
     r="17.356"
     id="circle3725" /><path
     style="fill:#FFDC5A;"
     d="M381.831,216.949l49.601,90.935c1.521,2.788,4.443,4.522,7.618,4.522h55.594  c4.792,0,8.678-3.886,8.678-8.678v-86.78H381.831z"
     id="path3727" /><path
     inkscape:connector-curvature="0"
     id="path3731"
     d="m 503.323,225.627 -147.526,0 c -4.792,0 -8.678,-3.886 -8.678,-8.678 l 0,0 c 0,-4.792 3.886,-8.678 8.678,-8.678 l 147.525,0 c 4.792,0 8.678,3.886 8.678,8.678 l 0,0 c 10e-4,4.793 -3.884,8.678 -8.677,8.678 z"
     style="fill:#ffc84b" /><path
     inkscape:connector-curvature="0"
     id="path3733"
     d="m 235.632,312.407 -2.653,0 c -4.242,0 -7.862,-3.067 -8.56,-7.252 l -6.761,-40.567 c -0.472,-2.829 -0.708,-5.692 -0.708,-8.56 l 0,-30.401 34.712,0 0,30.401 c 0,2.868 -0.236,5.731 -0.708,8.56 l -6.761,40.567 c -0.697,4.186 -4.318,7.252 -8.561,7.252 z"
     style="fill:#ffc84b" /><g
     id="moveable-part-1"><path
       style="fill:#ffc84b"
       d="m 52.07,156.204 295.05,0 -21.811,58.162 c -2.54,6.774 -9.016,11.262 -16.251,11.262 l -213.6,0 L 8.68,190.916 52.07,156.204 Z"
       id="path3735"
       inkscape:connector-curvature="0" /><path
       id="path3737"
       d="M468.611,147.526H52.068c-1.974,0-3.881,0.669-5.424,1.903L3.255,184.14  c-3.737,2.992-4.348,8.453-1.356,12.195c1.721,2.145,4.238,3.259,6.788,3.259c1.898,0,3.814-0.623,5.415-1.903l41.009-32.809h32.963  L64.002,184.14c-3.737,2.992-4.348,8.453-1.356,12.195c1.72,2.145,4.237,3.259,6.788,3.259c1.898,0,3.814-0.623,5.415-1.903  l41.011-32.809h31.333l-34.921,27.937c-3.737,2.992-4.348,8.453-1.356,12.195c1.72,2.145,4.237,3.259,6.788,3.259  c1.898,0,3.814-0.623,5.415-1.903l51.86-41.487h31.333l-34.92,27.937c-3.737,2.992-4.348,8.453-1.356,12.195  c1.72,2.145,4.237,3.259,6.788,3.259c1.898,0,3.814-0.623,5.415-1.903l51.858-41.487h31.333l-34.921,27.937  c-3.737,2.992-4.348,8.453-1.356,12.195c1.72,2.145,4.237,3.259,6.788,3.259c1.898,0,3.814-0.623,5.415-1.903l51.86-41.487h31.333  l-34.921,27.937c-3.737,2.992-4.348,8.453-1.356,12.195c1.72,2.145,4.237,3.259,6.788,3.259c1.898,0,3.814-0.623,5.415-1.903  l51.86-41.487h116.276c4.797,0,8.678-3.886,8.678-8.678S473.408,147.526,468.611,147.526z"
       style="fill:#FFDC5A;" /></g><path
     style="fill:#625D6B;"
     d="M251.662,242.981H216.95c-4.792,0-8.678-3.886-8.678-8.678v-8.678h52.068v8.678  C260.34,239.096,256.455,242.981,251.662,242.981z"
     id="path3739" /><g
     id="g3741" /><g
     id="g3743" /><g
     id="g3745" /><g
     id="g3747" /><g
     id="g3749" /><g
     id="g3751" /><g
     id="g3753" /><g
     id="g3755" /><g
     id="g3757" /><g
     id="g3759" /><g
     id="g3761" /><g
     id="g3763" /><g
     id="g3765" /><g
     id="g3767" /><g
     id="g3769" /></svg>